<?xml version="1.0" encoding="utf-8"?>
<!-- Generator: Adobe Illustrator 24.0.0, SVG Export Plug-In . SVG Version: 6.00 Build 0)  -->
<svg version="1.1" id="图层_1" xmlns="http://www.w3.org/2000/svg" xmlns:xlink="http://www.w3.org/1999/xlink" x="0px" y="0px"
	 viewBox="0 0 40 40" style="enable-background:new 0 0 40 40;" xml:space="preserve">
<title>扩展插件配图设计</title>
<g>
	<g>
		<path d="M23.7,12.3L9.7,12.2c-5,0-9.3,4.1-9.3,9.1l0,0c0,5,4.1,9.3,9.1,9.3l13.9,0.1c5,0,9.3-4.1,9.3-9.1l0,0
			C32.8,16.4,28.7,12.3,23.7,12.3z M28.7,21.5c0,2.9-2.5,5.4-5.4,5.4L9.6,26.7c-2.9,0-5.4-2.5-5.4-5.4l0,0l0,0
			c0-2.9,2.5-5.4,5.4-5.4l13.7,0.1C26.2,16.1,28.7,18.4,28.7,21.5L28.7,21.5z"/>
	</g>
</g>
<g>
	<g>
		<circle cx="10.7" cy="21.5" r="1.8"/>
	</g>
</g>
<g>
	<g>
		<circle cx="22.6" cy="21.5" r="1.8"/>
	</g>
</g>
<g>
	<path d="M30.2,9.2c-0.6,0.2-0.8,0.6-0.6,1.1s0.6,0.8,1.1,0.6c1-0.3,2,0,2.8,0.7c0.8,0.8,0.9,2,0.3,3.1c-0.2,0.6,0,1,0.3,1.2
		c0.1,0.1,0.3,0.1,0.4,0.1c0.1,0,0.2,0,0.3-0.1l0,0h0.1c0.2-0.1,0.2-0.1,0.4-0.4c1-1.7,0.8-3.9-0.6-5.4C33.7,9.2,31.8,8.6,30.2,9.2z
		"/>
	<path d="M39.2,9.5c-0.6-1.7-1.7-3-3.1-3.7c-1.6-0.7-3.1-0.8-4.7-0.2c-0.4,0.2-0.7,0.7-0.6,1.1c0.2,0.4,0.7,0.7,1.1,0.6
		c1.1-0.3,2.2-0.2,3.3,0.2c1,0.4,1.8,1.5,2.1,2.6c0.4,1.1,0.3,2.5-0.4,3.7c-0.2,0.6,0,1,0.3,1.2c0.2,0.1,0.3,0.2,0.4,0.2
		c0.1,0,0.1,0,0.2,0l0,0c0.2-0.1,0.3-0.2,0.3-0.3c0,0,0.1-0.1,0.1-0.2C39.5,13.2,39.7,11.4,39.2,9.5z"/>
</g>
</svg>
