<?xml version="1.0" encoding="utf-8"?>
<!-- Generator: Adobe Illustrator 24.0.0, SVG Export Plug-In . SVG Version: 6.00 Build 0)  -->
<svg version="1.1" id="图层_1" xmlns="http://www.w3.org/2000/svg" xmlns:xlink="http://www.w3.org/1999/xlink" x="0px" y="0px"
	 viewBox="0 0 40 40" style="enable-background:new 0 0 40 40;" xml:space="preserve">
<style type="text/css">
	.st0{fill:#FFFFFF;}
</style>
<title>扩展插件配图设计</title>
<g>
	<g>
		<path class="st0" d="M23.3,12.9l-12.5-0.1c-4.5,0-8.3,3.7-8.3,8.2l0,0c0,4.5,3.7,8.3,8.2,8.3l12.5,0.1c4.5,0,8.3-3.7,8.3-8.2l0,0
			C31.5,16.6,27.8,12.9,23.3,12.9z M27.8,21.1c0,2.6-2.2,4.8-4.8,4.8l-12.3-0.1c-2.6,0-4.8-2.2-4.8-4.8l0,0l0,0
			c0-2.6,2.2-4.8,4.8-4.8L23,16.3C25.6,16.3,27.8,18.4,27.8,21.1L27.8,21.1z"/>
	</g>
</g>
<g>
	<g>
		<circle class="st0" cx="11.7" cy="21.1" r="1.6"/>
	</g>
</g>
<g>
	<g>
		<circle class="st0" cx="22.3" cy="21.1" r="1.6"/>
	</g>
</g>
<g>
	<path class="st0" d="M29.1,10.1c-0.5,0.2-0.7,0.5-0.5,1s0.5,0.7,1,0.5c0.9-0.3,1.8,0,2.5,0.6c0.7,0.7,0.8,1.8,0.3,2.8
		c-0.2,0.5,0,0.9,0.3,1.1c0.1,0.1,0.3,0.1,0.4,0.1c0.1,0,0.2,0,0.3-0.1l0,0h0.1c0.2-0.1,0.2-0.1,0.4-0.4c0.9-1.5,0.7-3.5-0.5-4.8
		C32.3,10.1,30.6,9.6,29.1,10.1z"/>
	<path class="st0" d="M37.2,10.4c-0.5-1.5-1.5-2.7-2.8-3.3c-1.4-0.6-2.8-0.7-4.2-0.2c-0.4,0.2-0.6,0.6-0.5,1c0.2,0.4,0.6,0.6,1,0.5
		c1-0.3,2-0.2,3,0.2c0.9,0.4,1.6,1.3,1.9,2.3c0.4,1,0.3,2.2-0.4,3.3c-0.2,0.5,0,0.9,0.3,1.1c0.2,0.1,0.3,0.2,0.4,0.2
		c0.1,0,0.1,0,0.2,0l0,0c0.2-0.1,0.3-0.2,0.3-0.3c0,0,0.1-0.1,0.1-0.2C37.5,13.7,37.7,12.1,37.2,10.4z"/>
</g>
</svg>
